<?xml version="1.0" standalone="no"?>
<!DOCTYPE svg PUBLIC "-//W3C//DTD SVG 20010904//EN"
 "http://www.w3.org/TR/2001/REC-SVG-20010904/DTD/svg10.dtd">
<svg version="1.0" xmlns="http://www.w3.org/2000/svg"
 width="700.000000pt" height="700.000000pt" viewBox="0 0 700.000000 700.000000"
 preserveAspectRatio="xMidYMid meet">
<metadata>
Created by potrace 1.14, written by Peter Selinger 2001-2017
</metadata>
<g transform="translate(0.000000,700.000000) scale(0.100000,-0.100000)"
fill="#000000" stroke="none">
<path d="M3220 6989 c-922 -79 -1758 -503 -2362 -1198 -689 -793 -981 -1835
-807 -2879 96 -580 343 -1127 727 -1609 110 -138 385 -414 527 -527 769 -615
1754 -882 2718 -736 349 53 662 150 977 302 388 186 670 386 970 687 91 91
206 216 254 276 278 348 501 770 630 1197 188 622 192 1329 11 1958 -172 599
-473 1101 -927 1546 -247 243 -496 425 -808 592 -121 64 -146 69 -205 43 -37
-17 -50 -29 -67 -67 -17 -40 -19 -52 -9 -85 17 -58 37 -74 171 -145 586 -310
1068 -807 1365 -1409 178 -361 274 -684 320 -1080 26 -226 19 -658 -13 -813
-6 -30 -15 -37 -67 -59 -76 -32 -218 -68 -325 -83 -104 -14 -383 -29 -432 -23
-36 5 -38 7 -38 42 0 20 -7 63 -15 94 -42 160 -150 278 -311 339 l-59 23
-1350 0 -1350 0 -59 -23 c-161 -61 -269 -179 -311 -339 -8 -31 -15 -72 -15
-90 l0 -33 -238 0 c-658 0 -1206 75 -1637 224 -215 74 -193 59 -201 143 -12
137 2 566 24 708 75 480 247 929 503 1313 215 322 503 620 818 847 365 263
799 451 1246 539 144 29 287 46 480 57 214 12 233 18 266 86 34 71 5 149 -67
179 -37 15 -175 17 -334 3z m2213 -3903 c38 -16 82 -58 105 -101 15 -27 17
-97 20 -680 2 -464 0 -665 -8 -703 -15 -67 -75 -134 -135 -151 -56 -15 -2584
-15 -2640 0 -60 17 -120 84 -135 151 -8 38 -10 237 -8 703 3 714 0 676 65 737
64 61 -23 57 1401 58 1076 0 1308 -2 1335 -14z m-4958 -260 c197 -63 406 -109
650 -145 300 -43 492 -57 928 -67 l307 -7 0 -373 0 -373 -38 -10 c-21 -6 -89
-19 -152 -30 -394 -67 -889 -78 -1308 -29 l-104 12 -49 84 c-143 242 -261 532
-335 822 -38 149 -40 164 -21 156 6 -2 62 -21 122 -40z m6115 -248 c-17 -57
-49 -152 -71 -213 -49 -134 -224 -491 -245 -499 -30 -12 -233 -18 -337 -11
l-107 7 0 367 0 368 183 6 c208 7 382 28 512 61 50 12 92 21 93 20 2 -1 -10
-49 -28 -106z m-537 -1006 l27 -7 -72 -90 c-96 -121 -320 -348 -442 -448 -472
-392 -1013 -632 -1631 -724 -173 -26 -697 -26 -870 0 -707 106 -1318 406
-1813 891 -133 130 -279 293 -270 301 2 2 98 -1 214 -7 159 -9 262 -8 434 1
221 12 544 48 668 75 47 10 64 11 66 2 49 -186 146 -304 303 -368 l58 -23
1350 -3 c1320 -2 1351 -2 1415 17 68 21 145 64 194 110 61 56 118 163 140 261
l5 26 98 -4 c54 -2 110 -7 126 -10z"/>
<path d="M4465 6816 c-16 -7 -41 -26 -55 -41 -21 -22 -25 -37 -25 -87 0 -56 2
-62 37 -93 47 -44 95 -53 145 -29 125 62 101 236 -37 258 -20 4 -47 0 -65 -8z"/>
<path d="M2805 5079 c-27 -6 -86 -27 -130 -49 -187 -90 -305 -277 -305 -483 0
-146 47 -268 142 -372 111 -122 236 -177 403 -178 162 0 289 55 397 172 207
223 196 559 -23 766 -72 68 -117 95 -209 127 -65 23 -204 31 -275 17z m211
-284 c90 -37 156 -126 170 -226 15 -107 -55 -226 -161 -275 -129 -61 -287 -3
-358 130 -31 58 -31 174 0 232 56 105 133 154 245 154 38 0 85 -7 104 -15z"/>
<path d="M5115 5078 c-84 -16 -189 -73 -264 -144 -216 -204 -230 -539 -31
-757 28 -30 76 -72 107 -93 176 -116 415 -118 593 -4 110 70 203 201 236 333
24 90 15 230 -19 320 -96 251 -357 396 -622 345z m233 -294 c94 -47 145 -131
146 -239 2 -294 -393 -382 -518 -115 -29 62 -28 169 2 226 54 106 132 154 247
154 56 0 82 -5 123 -26z"/>
</g>
</svg>
